<?xml version="1.0" standalone="no"?>
<!DOCTYPE svg PUBLIC "-//W3C//DTD SVG 20010904//EN"
 "http://www.w3.org/TR/2001/REC-SVG-20010904/DTD/svg10.dtd">
<svg version="1.0" xmlns="http://www.w3.org/2000/svg"
 width="272.000000pt" height="272.000000pt" viewBox="0 0 272.000000 272.000000"
 preserveAspectRatio="xMidYMid meet">
<metadata>
Created by potrace 1.11, written by Peter Selinger 2001-2013
</metadata>
<g transform="translate(0.000000,272.000000) scale(0.100000,-0.100000)"
fill="#000000" stroke="none">
<path d="M1296 2591 c-5 -8 -51 -18 -121 -26 -16 -2 -31 -4 -32 -5 -2 -2 -6
-3 -10 -5 -5 -1 -15 -4 -23 -8 -16 -6 -91 -30 -100 -32 -3 -1 -23 -10 -45 -20
-22 -10 -42 -19 -45 -20 -3 -2 -15 -6 -27 -10 -13 -4 -23 -11 -23 -16 0 -5 -6
-9 -14 -9 -7 0 -25 -9 -40 -21 -14 -11 -26 -17 -26 -12 0 4 -4 3 -8 -3 -4 -6
-29 -25 -57 -44 -43 -28 -219 -198 -250 -241 -39 -53 -127 -193 -131 -209 0
-3 -12 -30 -26 -60 -28 -60 -65 -173 -74 -224 -2 -17 -9 -46 -14 -63 -4 -18
-6 -33 -3 -33 3 0 -1 -8 -8 -17 -10 -11 -10 -14 -2 -9 7 4 13 3 13 -3 0 -5 -5
-11 -12 -13 -7 -3 -12 -41 -13 -111 -2 -77 0 -105 9 -100 7 4 6 1 -1 -8 -10
-12 -10 -18 -1 -27 7 -7 13 -27 14 -44 1 -18 5 -44 8 -58 3 -14 8 -38 12 -55
10 -52 49 -170 57 -173 4 -2 5 -8 1 -13 -3 -5 0 -9 6 -9 6 0 9 -3 6 -8 -7 -11
63 -149 92 -180 7 -7 10 -17 7 -22 -3 -4 2 -11 11 -14 9 -4 14 -9 10 -13 -3
-3 3 -12 14 -20 11 -8 20 -19 20 -24 0 -6 7 -17 15 -26 8 -8 13 -19 10 -24 -4
-5 0 -6 8 -3 8 3 18 0 23 -7 5 -8 3 -10 -7 -3 -8 4 5 -11 29 -35 23 -23 39
-48 36 -53 -4 -7 -2 -8 5 -4 14 9 72 -44 64 -57 -3 -6 -1 -7 4 -4 6 4 13 1 16
-7 3 -7 26 -23 52 -35 35 -16 45 -26 41 -38 -6 -14 -4 -14 11 -2 15 12 16 12
10 -3 -4 -12 -2 -15 8 -12 8 3 22 -4 32 -16 10 -12 27 -26 38 -31 14 -7 13 -4
-5 11 l-25 21 28 -12 c16 -8 27 -20 28 -33 0 -21 1 -21 9 -1 8 19 11 18 14 -4
0 -5 5 -13 10 -18 5 -5 6 -3 2 4 -4 8 -1 13 9 13 10 0 13 -5 9 -12 -5 -8 0 -9
14 -6 13 4 25 1 30 -6 4 -7 18 -19 32 -26 24 -13 24 -12 10 6 -14 17 -14 18 2
6 9 -8 23 -10 29 -6 7 4 9 3 6 -2 -3 -6 -2 -16 4 -24 6 -10 9 -11 9 -2 0 6 5
12 11 12 5 0 7 -5 3 -12 -5 -7 -2 -9 8 -5 20 7 38 -11 31 -32 -4 -13 -3 -14 5
-1 6 8 9 17 6 21 -2 4 0 11 6 14 6 4 10 3 9 -2 -4 -20 2 -24 18 -12 15 12 16
12 10 -3 -3 -10 -1 -20 5 -24 7 -4 8 -3 4 4 -4 7 -2 12 3 12 6 0 11 -5 11 -12
0 -6 3 -8 7 -5 3 4 12 2 19 -4 11 -9 15 -7 20 6 5 13 9 14 15 4 6 -10 11 -10
25 2 10 8 15 9 12 4 -4 -6 -3 -17 3 -25 5 -9 9 -10 9 -4 0 7 7 15 16 18 14 5
15 4 5 -8 -9 -11 -8 -15 4 -20 9 -3 14 -2 11 3 -3 5 1 12 10 15 24 9 27 7 14
-9 -7 -9 -10 -18 -6 -22 3 -3 6 -1 6 5 0 7 9 12 21 12 13 0 18 -4 13 -12 -5
-9 -2 -9 9 1 19 15 23 26 5 15 -7 -5 -8 -3 -4 5 5 7 11 10 14 7 3 -3 10 -1 17
4 8 7 12 5 12 -5 0 -8 -4 -15 -9 -15 -4 0 -8 -5 -8 -11 0 -8 5 -8 15 1 12 10
18 10 33 -1 14 -11 15 -11 5 1 -18 19 -16 26 7 27 11 1 20 -3 20 -8 0 -6 -4
-7 -10 -4 -16 10 -11 -1 7 -16 14 -12 16 -12 8 0 -6 11 -4 13 9 8 11 -5 15 -3
10 5 -5 8 -2 9 9 5 20 -8 49 2 42 13 -3 5 0 12 6 16 8 4 9 3 5 -4 -4 -7 -2
-12 5 -12 8 0 7 -5 -2 -17 -13 -15 -12 -15 8 -2 16 9 19 16 10 21 -9 6 -8 8 3
8 9 0 11 3 5 8 -27 19 -35 64 -37 210 -2 106 0 151 8 148 6 -2 11 2 11 10 0 8
-6 13 -12 10 -8 -3 -10 4 -7 20 2 14 0 24 -7 24 -7 0 -9 5 -5 11 4 8 12 3 21
-12 10 -17 12 -18 7 -4 -3 11 -9 30 -11 43 -3 12 -10 22 -16 22 -7 0 -7 4 1
12 15 15 16 48 2 48 -6 0 -5 8 2 19 9 15 9 23 -1 34 -8 10 -9 17 -1 22 13 8
13 45 -1 45 -5 0 -7 5 -3 11 4 8 12 3 21 -12 10 -17 12 -18 7 -4 -3 11 -9 30
-11 43 -3 12 -10 22 -16 22 -7 0 -7 4 1 12 15 15 16 48 2 48 -6 0 -5 8 2 19 9
15 9 23 -1 34 -8 10 -9 17 -1 22 14 9 13 45 -2 45 -6 0 -3 7 8 16 10 8 14 13
7 9 -8 -3 -11 1 -8 15 2 11 -2 20 -8 20 -9 0 -9 2 0 8 10 6 12 88 10 344 -2
268 1 334 11 326 8 -7 12 -7 12 0 0 6 -8 16 -17 22 -17 11 -17 11 0 6 9 -3 17
-1 17 4 0 6 9 1 20 -10 10 -10 28 -17 39 -15 11 2 24 -1 27 -7 5 -7 2 -8 -7
-4 -8 4 -5 0 5 -8 19 -15 19 -38 19 -738 0 -398 -2 -730 -4 -738 -2 -8 -8 -19
-14 -23 -5 -4 8 -6 30 -4 49 5 76 -7 69 -31 -5 -14 -4 -14 4 -2 6 8 8 18 6 22
-3 4 0 8 6 8 6 0 8 4 5 10 -3 5 -1 10 5 10 6 0 10 -6 8 -14 -2 -8 2 -15 7 -15
6 -1 11 5 11 12 1 6 2 16 3 21 0 6 6 5 13 -2 7 -7 17 -12 23 -12 5 0 3 5 -5
10 -13 8 -13 13 -2 31 10 16 10 19 1 13 -9 -5 -10 -2 -5 12 4 10 10 30 12 43
4 20 3 22 -10 12 -12 -10 -14 -8 -9 11 3 13 11 29 17 37 8 11 8 13 0 8 -7 -4
-15 0 -18 9 -3 8 -2 12 4 9 6 -3 10 -3 11 2 0 4 2 19 5 32 3 19 2 21 -9 13
-19 -16 -16 20 4 44 12 15 12 17 0 9 -11 -6 -13 -4 -7 11 4 10 9 24 10 29 1 6
5 16 9 22 6 9 3 11 -7 7 -20 -8 -22 26 -3 45 7 9 7 11 1 8 -7 -4 -15 0 -18 9
-3 8 -2 13 3 10 5 -3 12 1 15 10 4 10 2 13 -7 8 -9 -5 -9 -4 1 7 16 18 16 34
-1 20 -19 -15 -16 21 4 45 12 15 12 17 0 9 -11 -6 -13 -4 -7 11 4 10 9 24 10
29 1 6 5 16 9 22 6 9 3 11 -7 7 -20 -8 -22 26 -3 45 7 9 7 11 1 8 -7 -4 -15 0
-18 9 -3 8 -2 12 4 9 6 -3 10 -3 11 2 0 4 2 19 5 32 3 19 2 21 -9 13 -19 -16
-16 20 4 44 12 15 12 17 0 9 -11 -6 -13 -4 -7 11 4 10 9 24 10 29 1 6 5 16 9
22 6 9 3 11 -7 7 -20 -8 -22 26 -3 45 7 9 7 11 1 8 -7 -4 -15 0 -18 9 -3 8 -2
12 4 9 6 -3 10 -3 11 2 0 4 2 19 5 32 3 19 2 21 -9 13 -19 -16 -16 20 4 44 12
15 12 17 0 9 -11 -6 -13 -4 -7 11 4 10 9 24 10 29 1 6 5 16 9 22 6 9 3 11 -7
7 -20 -8 -22 26 -3 45 7 9 7 11 1 8 -7 -4 -15 0 -18 9 -4 10 -2 13 6 8 8 -5 9
-2 5 10 -4 10 -3 15 3 11 17 -11 11 7 -7 22 -16 13 -16 13 7 7 l25 -7 -25 22
c-14 13 -19 20 -12 16 6 -3 12 -3 13 2 0 4 2 19 5 32 3 19 2 21 -9 13 -19 -16
-16 20 4 44 12 15 12 17 0 9 -11 -6 -13 -4 -7 11 14 35 16 57 6 69 -8 9 -3 11
16 7 20 -4 25 -2 19 8 -5 9 -4 11 4 6 7 -4 9 -17 6 -29 -5 -18 -4 -19 4 -6 7
11 19 15 36 11 14 -2 23 -7 21 -10 -3 -3 -1 -10 4 -17 13 -15 20 -135 8 -135
-5 0 -6 -6 -1 -12 11 -18 11 -148 0 -148 -4 0 -5 -6 0 -12 11 -19 11 -208 -1
-201 -5 4 -6 1 -1 -7 11 -18 13 -260 2 -260 -4 0 -5 -6 0 -12 11 -18 11 -148
0 -148 -4 0 -5 -6 0 -12 10 -18 11 -208 0 -201 -5 3 -4 -4 3 -16 9 -17 9 -26
-1 -37 -7 -9 -8 -14 -1 -14 11 0 10 -17 -3 -55 -6 -16 -5 -17 4 -5 6 8 11 11
11 6 0 -5 7 -3 15 4 8 7 15 9 15 4 0 -4 7 1 16 12 14 18 15 18 4 -4 -6 -12
-15 -20 -21 -17 -15 10 -10 -2 8 -16 11 -10 14 -10 9 -1 -4 7 -1 12 9 12 10 0
13 -5 9 -12 -4 -7 -3 -8 5 -4 8 6 9 12 2 20 -7 9 -7 16 1 24 15 15 28 15 28 1
0 -5 -4 -8 -9 -4 -5 3 -12 1 -16 -5 -4 -6 4 -9 18 -8 17 2 23 7 19 17 -4 11 0
13 17 8 19 -5 20 -3 9 11 -11 14 -10 15 5 9 10 -4 16 -3 12 2 -3 6 3 14 12 20
10 6 13 11 8 11 -6 0 -17 -6 -24 -12 -11 -11 -11 -9 -2 9 6 12 14 23 18 25 5
3 2 3 -5 2 -15 -4 -5 47 12 58 7 5 7 8 1 8 -6 0 -16 -5 -22 -11 -9 -9 -10 -7
-6 9 3 12 9 19 14 16 5 -3 6 2 3 10 -3 9 -10 13 -15 10 -5 -3 -6 2 -3 11 5 13
9 13 22 3 13 -12 14 -11 2 9 -8 12 -19 19 -25 15 -11 -6 14 28 30 41 6 5 3 7
-7 3 -12 -3 -18 0 -18 10 0 8 4 13 9 9 5 -3 13 0 17 6 5 8 3 9 -6 4 -10 -6
-12 -4 -7 8 3 9 2 19 -3 22 -6 4 -10 11 -10 17 0 6 7 5 18 -3 14 -11 15 -11 5
1 -16 18 -17 44 -1 34 7 -4 8 -3 4 5 -6 9 -11 9 -21 1 -11 -9 -12 -7 -8 9 3
12 10 18 16 14 5 -3 7 -1 3 5 -3 5 0 13 6 16 7 3 4 4 -8 1 -16 -4 -20 -1 -19
15 1 11 5 23 10 27 4 5 5 3 1 -4 -3 -6 -1 -15 5 -19 8 -4 9 -3 5 4 -4 7 -2 12
4 12 7 0 5 7 -4 16 -22 21 -21 40 2 23 14 -11 15 -11 5 1 -16 18 -17 44 -1 34
7 -4 8 -3 4 5 -6 9 -11 9 -24 -1 -14 -12 -14 -10 -3 10 7 12 17 20 23 16 7 -4
8 -3 4 4 -4 6 -12 9 -19 6 -8 -3 -13 4 -14 18 0 13 1 17 4 11 6 -16 33 -17 33
-2 0 5 -4 8 -9 5 -10 -6 -23 18 -26 47 -1 10 3 21 8 24 6 3 7 2 4 -4 -3 -5 0
-10 7 -10 8 0 12 6 9 14 -3 7 -12 13 -20 13 -8 0 -12 4 -8 10 3 5 13 6 23 3
16 -6 16 -6 0 11 -10 9 -18 22 -18 28 0 6 7 5 18 -3 14 -11 15 -11 5 1 -16 18
-17 44 -1 34 7 -4 8 -3 4 5 -6 9 -11 9 -24 -1 -14 -12 -14 -10 -3 10 7 12 17
20 23 16 7 -4 8 -3 4 4 -4 6 -12 9 -19 6 -8 -3 -13 4 -14 18 0 13 1 17 4 11 6
-16 33 -17 33 -2 0 5 -4 8 -9 5 -10 -6 -23 18 -26 47 -1 10 3 21 8 24 6 3 7 2
4 -4 -3 -5 0 -10 7 -10 8 0 12 6 9 14 -3 7 -12 13 -20 13 -8 0 -12 4 -8 10 3
5 13 6 23 3 16 -6 16 -6 0 11 -10 9 -18 22 -18 28 0 6 7 5 18 -3 14 -11 15
-11 5 1 -16 18 -17 44 -1 34 7 -4 8 -3 4 5 -6 9 -11 9 -21 1 -11 -9 -12 -7 -8
9 3 12 10 18 16 14 5 -3 7 -1 3 5 -3 5 0 13 6 16 7 3 3 3 -9 0 -18 -4 -22 -2
-17 10 3 9 11 13 18 9 6 -4 5 1 -3 10 -7 9 -10 17 -6 17 4 0 2 7 -5 15 -7 9
-10 18 -6 22 3 3 6 2 6 -4 0 -6 7 -13 15 -17 13 -5 13 -3 0 17 -14 22 -5 60
12 44 4 -5 2 -11 -4 -15 -9 -5 -6 -12 8 -21 16 -9 19 -9 13 0 -5 9 -1 11 14 7
12 -4 20 -2 16 3 -9 16 5 10 31 -13 l25 -21 0 -451 c0 -248 2 -452 5 -453 14
-7 25 -2 19 10 -6 9 -4 9 7 1 19 -14 57 -15 65 -2 4 7 2 8 -5 4 -6 -4 -19 -2
-28 6 -12 9 -15 9 -9 1 4 -8 2 -13 -4 -13 -7 0 -10 6 -7 13 2 6 14 11 25 9 15
-2 22 2 22 14 0 11 6 15 20 11 11 -3 18 -1 15 3 -3 5 1 11 7 14 7 3 2 3 -12 0
-24 -5 -24 -4 -6 10 10 9 22 13 26 11 4 -2 7 2 7 9 0 8 -9 12 -21 9 -18 -3
-17 -2 2 7 13 5 29 7 35 3 7 -3 4 3 -6 14 -17 19 -17 21 -1 19 19 -1 30 39 14
49 -7 4 -9 -3 -6 -19 3 -15 1 -24 -3 -21 -14 8 -7 65 9 75 10 7 11 10 3 10 -7
0 -13 8 -13 18 0 15 2 15 11 2 9 -12 10 -12 5 3 -3 10 -6 21 -6 23 0 3 -4 2
-10 -1 -5 -3 -10 -1 -10 4 0 6 10 11 23 11 12 0 18 4 12 8 -5 4 -10 16 -10 27
0 11 -6 19 -13 17 -8 -1 -11 2 -7 8 4 6 14 9 22 6 9 -4 11 -2 6 7 -4 6 -8 21
-9 32 -2 40 -4 46 -14 40 -5 -3 -10 -1 -10 4 0 6 10 11 23 11 12 0 18 4 12 8
-5 4 -10 16 -10 27 0 11 -6 19 -13 17 -8 -1 -11 2 -7 8 4 6 14 9 22 6 9 -4 11
-2 6 7 -4 6 -8 21 -9 32 -2 40 -4 46 -14 40 -5 -3 -10 -1 -10 4 0 6 10 11 23
11 12 0 18 4 12 8 -5 4 -10 16 -10 27 0 11 -6 19 -13 17 -8 -1 -11 2 -7 8 4 6
14 9 22 6 9 -4 11 -2 6 7 -4 6 -8 21 -9 32 -2 40 -4 46 -14 40 -5 -3 -10 -1
-10 4 0 6 10 11 23 11 12 0 18 4 12 8 -5 4 -10 16 -10 27 0 11 -6 19 -13 17
-8 -1 -11 2 -7 8 4 6 14 9 22 6 9 -4 11 -2 6 6 -11 19 -12 79 -1 72 5 -3 4 3
-3 14 -7 12 -16 19 -20 17 -3 -3 -6 3 -6 13 0 53 -3 64 -18 58 -8 -3 -15 -1
-15 4 0 5 -19 15 -42 22 -24 6 -53 18 -65 26 -12 7 -26 14 -30 14 -10 1 -30 7
-68 21 -16 7 -32 12 -35 13 -3 0 -18 6 -35 13 -58 25 -80 33 -99 37 -11 2 -22
7 -25 11 -3 5 -13 9 -21 11 -8 2 -51 17 -95 35 -44 17 -82 32 -85 32 -3 1 -16
7 -30 15 -14 7 -27 13 -30 13 -3 0 -16 4 -30 9 -14 5 -32 11 -40 13 -8 2 -48
17 -87 34 -40 16 -73 27 -73 23 0 -4 -4 -2 -8 5 -6 10 -14 9 -35 -2 -15 -7
-27 -12 -27 -9 0 2 -18 -5 -40 -16 -22 -11 -40 -18 -40 -16 0 3 -36 -10 -80
-29 -44 -19 -81 -34 -83 -34 -1 0 -15 -4 -30 -10 -16 -6 -33 -11 -38 -11 -5 0
-9 -5 -9 -10 0 -6 -3 -9 -7 -8 -10 3 -50 -10 -91 -28 -18 -9 -42 -16 -52 -17
-11 -1 -20 -5 -20 -9 0 -4 -9 -8 -20 -8 -11 0 -20 -4 -20 -8 0 -5 -6 -9 -14
-9 -7 0 -49 -14 -92 -31 -127 -51 -138 -55 -149 -58 -5 -1 -23 -8 -40 -15 -16
-7 -33 -12 -37 -11 -5 1 -8 -2 -8 -8 0 -5 -7 -7 -15 -4 -8 4 -15 1 -15 -5 0
-6 -3 -10 -7 -10 -20 3 -30 -2 -30 -16 0 -8 6 -15 14 -15 12 0 17 -13 14 -33
-1 -5 3 -6 8 -3 5 4 12 2 15 -3 4 -5 2 -12 -4 -16 -6 -4 -7 -12 -3 -18 4 -7 7
-192 8 -412 0 -426 -2 -406 48 -453 9 -9 17 -20 17 -25 0 -5 7 -15 15 -23 8
-9 15 -12 15 -8 0 4 6 -1 14 -12 11 -14 11 -21 3 -27 -12 -9 2 -5 41 10 15 6
16 5 2 -13 -14 -18 -14 -18 2 -5 10 7 16 17 13 21 -3 5 -2 10 2 13 5 2 2 2 -4
1 -17 -4 -16 1 3 34 11 19 12 22 1 10 -8 -10 -17 -18 -20 -18 -9 0 15 53 28
63 6 5 3 6 -8 3 -11 -4 -17 -1 -15 7 1 6 -3 22 -10 34 -10 19 -10 22 2 17 8
-3 17 0 22 7 4 8 3 10 -4 5 -8 -5 -10 2 -6 24 4 19 2 30 -5 30 -6 0 -11 8 -11
18 0 14 2 15 10 2 8 -13 11 -13 22 -1 11 11 11 13 -1 6 -11 -6 -13 -4 -8 8 4
12 2 14 -11 10 -14 -5 -15 -3 -5 8 15 16 17 33 3 24 -6 -4 -8 3 -6 17 3 13 5
27 5 31 1 5 7 5 14 1 6 -4 5 1 -4 12 -26 32 -32 44 -16 38 8 -3 18 0 23 7 4 8
3 10 -4 5 -8 -5 -10 2 -6 24 4 19 2 30 -5 30 -6 0 -11 8 -11 18 0 14 2 15 10
2 8 -13 11 -13 22 -1 11 11 11 13 -1 6 -11 -6 -13 -4 -8 8 4 12 1 15 -11 11
-14 -5 -13 -3 2 10 20 16 20 16 0 17 -18 0 -18 1 1 9 17 7 17 9 3 9 -10 1 -18
6 -18 12 0 5 6 7 13 3 7 -5 6 0 -3 11 -14 17 -13 18 2 12 12 -4 15 -2 11 8 -3
8 -9 12 -14 9 -5 -3 -6 2 -3 10 3 9 10 13 15 10 15 -9 10 3 -7 21 -20 19 -11
33 10 16 13 -11 13 -9 3 13 -7 14 -15 26 -19 26 -5 0 -8 8 -8 18 0 14 2 15 10
2 8 -13 11 -13 22 -1 11 11 11 13 -1 6 -11 -6 -13 -4 -8 8 4 11 2 14 -8 11
-10 -4 -12 0 -8 16 3 12 12 24 19 27 18 7 18 20 -1 20 -8 0 -12 -4 -9 -9 3 -4
0 -8 -6 -8 -7 0 -9 7 -6 16 3 9 6 18 6 20 0 3 6 2 13 -2 6 -4 4 2 -7 14 -15
17 -16 25 -7 36 8 9 10 24 6 38 -7 21 -7 21 9 5 10 -9 20 -17 23 -17 4 0 3 3
0 7 -4 3 -1 13 6 22 11 14 10 15 -8 1 -18 -14 -19 -14 -7 2 8 10 17 17 20 16
4 0 21 0 37 1 23 1 27 3 15 11 -12 8 -11 10 7 10 13 0 22 -3 22 -7 -1 -5 -1
-252 0 -550 1 -433 4 -544 14 -555 7 -7 19 -22 26 -33 12 -20 12 -20 6 0 -6
20 -6 20 13 0 11 -11 17 -24 14 -30 -3 -5 1 -4 10 3 12 10 17 10 27 -1 6 -8 7
-17 3 -22 -4 -4 3 -3 15 4 14 7 24 8 28 1 3 -5 12 -10 18 -10 7 0 6 4 -3 10
-8 5 -10 10 -4 10 6 0 11 7 11 15 0 8 -4 12 -9 9 -4 -3 -8 -2 -9 3 0 4 -2 18
-5 31 -2 13 1 22 9 22 8 0 13 13 13 34 0 19 -4 32 -8 30 -4 -3 -8 -2 -9 3 0 4
-2 16 -4 25 -2 11 2 15 11 11 8 -3 14 0 14 6 0 6 -8 11 -17 12 -12 0 -13 2 -5
6 9 4 10 8 2 18 -8 10 -8 15 1 21 8 5 10 3 4 -7 -5 -8 -4 -10 0 -6 12 10 15
38 4 31 -10 -6 -10 -6 -13 54 -1 24 1 45 5 47 3 3 5 -9 4 -25 -1 -17 1 -32 4
-35 12 -7 6 59 -8 84 -10 17 -10 26 -1 35 8 8 10 7 5 -5 -3 -9 2 -22 11 -30
16 -12 17 -12 8 1 -5 8 -9 38 -9 65 0 31 -4 49 -11 48 -11 -2 -14 71 -2 82 3
3 4 -11 2 -32 -2 -21 0 -33 4 -26 12 19 8 138 -4 136 -12 -2 -13 51 -2 63 4 3
5 -6 2 -22 -3 -16 -2 -25 2 -22 10 11 13 68 3 62 -10 -6 -10 -6 -13 54 -1 24
1 45 5 47 3 3 5 -9 4 -25 -1 -17 1 -32 4 -35 10 -5 7 57 -2 72 -16 25 -16 52
-1 46 8 -3 14 0 14 6 0 6 -8 11 -17 12 -11 0 -13 3 -5 6 6 2 9 10 5 16 -10 16
-12 57 -3 62 4 3 6 -9 5 -26 -1 -16 0 -27 3 -24 12 12 9 76 -3 71 -13 -5 -15
47 -3 60 4 3 5 -5 2 -20 -2 -14 -1 -26 4 -26 4 0 8 15 8 34 0 19 -4 32 -8 30
-4 -3 -8 -2 -9 3 0 4 -2 16 -4 26 -2 9 1 15 6 11 5 -3 7 -9 5 -13 -3 -4 1 -8
9 -8 10 0 12 4 5 12 -5 7 -7 15 -3 18 3 4 -2 7 -13 7 -14 0 -16 2 -5 9 9 6 10
11 2 15 -6 4 -9 12 -5 17 3 5 9 7 14 4 4 -3 12 1 18 8 10 12 12 17 12 37 0 6
6 10 13 8 7 -2 12 2 12 7 0 6 -5 10 -11 9 -6 -1 -11 4 -11 11 0 10 8 9 34 -1
30 -13 33 -13 34 3 1 12 4 9 8 -7 4 -14 8 -316 8 -672 0 -509 3 -650 13 -662
7 -9 16 -14 20 -11 4 3 14 -3 21 -13 13 -15 12 -16 -3 -3 -10 7 -18 9 -18 3 0
-16 26 -22 40 -9 10 9 11 9 6 0 -4 -7 -2 -13 4 -13 6 0 8 -5 4 -12 -4 -7 -3
-8 5 -4 6 4 9 11 6 16 -3 5 -1 11 5 15 5 3 10 -2 10 -12 1 -17 1 -17 14 0 14
18 14 17 21 -2 3 -12 10 -21 15 -21 5 0 7 6 4 14 -3 8 0 17 7 22 7 4 10 3 6
-3 -3 -5 0 -10 8 -10 10 0 12 4 5 12 -5 7 -6 16 -2 20 4 5 2 5 -4 2 -12 -7
-26 15 -29 45 -3 21 6 23 25 5 12 -10 12 -9 2 4 -6 9 -9 19 -5 22 3 4 -2 7
-13 7 -16 0 -17 2 -4 10 13 9 13 10 0 11 -10 0 -8 3 5 9 l20 9 -20 0 c-17 1
-17 3 -5 11 10 6 11 10 3 10 -7 0 -13 5 -13 11 0 6 7 9 14 6 10 -4 13 -1 9 8
-3 8 -10 12 -17 8 -6 -3 -6 -1 2 8 13 14 17 33 4 26 -4 -3 -8 12 -8 34 -1 37
5 47 19 32 4 -3 2 -12 -4 -20 -7 -8 -8 -13 -1 -13 16 0 21 25 7 43 -6 9 -14
16 -16 14 -2 -1 2 4 10 11 13 10 12 12 -5 12 -16 0 -17 2 -4 10 13 9 13 10 0
11 -10 0 -8 3 5 9 l20 9 -20 0 c-17 1 -17 3 -5 11 10 6 11 10 3 10 -7 0 -13 5
-13 11 0 6 7 9 14 6 10 -4 13 -1 9 8 -3 8 -10 12 -17 8 -6 -3 -6 -1 2 8 13 14
17 33 4 26 -4 -3 -8 12 -8 34 -1 37 5 47 19 32 4 -3 2 -12 -4 -20 -7 -8 -8
-13 -1 -13 16 0 21 25 7 43 -6 9 -14 16 -16 14 -2 -1 2 4 10 10 13 11 12 13
-5 13 -16 0 -17 2 -4 10 13 9 13 10 0 11 -10 0 -8 3 5 9 l20 9 -20 0 c-17 1
-17 3 -5 11 10 6 11 10 3 10 -7 0 -13 5 -13 11 0 6 7 9 14 6 10 -4 13 -1 9 8
-3 8 -10 12 -17 8 -6 -3 -6 -1 2 8 13 14 17 33 4 26 -4 -3 -8 12 -8 34 -1 37
5 47 19 32 4 -3 2 -12 -4 -20 -7 -8 -8 -13 -1 -13 16 0 21 25 7 43 -6 9 -14
16 -16 14 -2 -1 2 4 10 10 13 11 12 13 -5 13 -16 0 -17 2 -4 10 13 9 13 10 0
11 -10 0 -8 3 5 9 l20 9 -20 0 c-17 1 -17 3 -5 11 10 6 11 10 3 10 -7 0 -13 5
-13 11 0 6 7 9 14 6 10 -4 13 -1 9 8 -3 8 -10 12 -17 8 -6 -3 -6 -1 2 8 13 14
17 33 4 26 -4 -3 -8 12 -8 34 -1 37 5 47 19 32 4 -3 2 -12 -4 -20 -7 -8 -8
-13 -1 -13 16 0 21 25 7 43 -6 9 -14 16 -16 14 -2 -1 2 4 10 11 13 10 12 12
-5 12 -16 0 -17 2 -4 10 13 9 13 10 0 11 -10 0 -8 3 5 9 l20 9 -20 0 c-17 1
-17 3 -5 11 13 9 13 10 0 11 -10 0 -8 3 5 9 l20 9 -20 0 c-17 1 -17 3 -5 11
13 9 13 10 0 11 -10 0 -8 3 5 9 l20 9 -20 0 c-17 1 -17 3 -5 11 10 6 11 10 3
10 -7 0 -13 5 -13 11 0 6 7 9 14 6 10 -4 13 -1 9 8 -3 8 -10 12 -17 8 -6 -3
-6 -1 2 8 13 14 17 33 4 26 -4 -3 -8 12 -8 34 -1 37 5 47 19 32 4 -3 2 -12 -4
-20 -7 -8 -8 -13 -1 -13 16 0 21 25 7 43 -6 9 -14 16 -16 14 -3 -1 4 7 16 17
15 15 16 18 3 13 -9 -3 -19 0 -21 8 -6 15 1 25 17 25 6 0 4 -5 -4 -11 -13 -9
-13 -10 0 -6 18 4 20 24 7 52 -8 18 -7 18 12 -2 24 -25 41 -32 22 -9 -9 11 -9
16 0 22 7 4 9 3 6 -3 -4 -6 0 -14 9 -17 9 -3 12 -2 9 5 -11 17 15 40 34 30 14
-9 16 -79 16 -786 0 -427 -2 -780 -5 -783 -6 -9 -90 -11 -90 -3 0 3 -21 7 -48
8 -42 2 -87 9 -87 13 0 1 -13 4 -30 6 -42 6 -209 65 -213 76 -2 4 -12 8 -23 8
-10 0 -19 5 -19 11 0 6 -7 9 -15 5 -8 -3 -15 -2 -15 2 0 4 -17 16 -37 27 -21
11 -44 26 -51 32 -7 7 -16 13 -20 13 -17 0 -172 142 -166 151 3 5 -1 9 -9 9
-15 0 -67 61 -67 79 0 6 -7 11 -16 11 -8 0 -12 5 -9 10 3 6 1 10 -4 10 -6 0
-11 9 -11 21 0 13 -4 18 -12 13 -8 -5 -9 -2 -5 10 4 10 3 15 -3 11 -11 -7 -32
29 -23 39 3 3 2 6 -4 6 -12 0 -54 83 -56 111 -1 10 -5 15 -9 13 -9 -6 -10 -2
-12 38 -1 15 -6 31 -10 35 -5 5 -6 2 -1 -6 6 -10 4 -12 -4 -7 -9 6 -9 11 0 22
10 12 10 14 -1 12 -7 -2 -15 3 -18 11 -3 9 0 11 8 6 14 -8 8 6 -14 34 -12 15
-18 43 -8 37 4 -2 7 9 7 24 1 16 -2 27 -6 24 -4 -2 -11 6 -15 18 -12 37 -13
88 -2 88 6 0 0 9 -13 21 -13 11 -19 18 -14 15 6 -2 17 4 24 16 7 11 8 17 3 14
-14 -9 -22 18 -10 35 7 11 8 9 3 -6 -5 -17 -4 -18 7 -7 11 11 9 17 -10 32
l-22 19 21 6 c11 4 18 9 15 12 -3 4 0 13 7 21 8 11 8 14 0 9 -6 -4 -14 -3 -17
2 -4 5 2 12 11 14 15 4 16 5 2 6 -9 0 -19 8 -23 16 -5 13 -2 14 15 4 16 -8 24
-8 33 1 8 8 7 10 -6 5 -15 -6 -18 8 -8 35 1 3 1 13 0 24 -1 12 2 16 12 11 9
-6 10 -5 3 4 -16 16 -6 85 9 71 9 -7 13 -5 13 5 0 8 -4 12 -9 9 -4 -3 -8 -1
-8 5 0 6 -8 8 -18 4 -18 -7 -17 -5 12 17 12 9 17 10 12 3 -5 -9 -2 -11 10 -6
14 5 13 8 -7 19 -13 7 -18 13 -12 14 7 0 12 3 12 8 -1 4 0 10 1 15 1 4 3 12 4
17 0 6 5 9 9 8 5 -2 13 5 19 16 8 14 7 21 -3 28 -10 7 -8 8 9 5 12 -3 22 -1
22 4 0 9 -15 13 -33 10 -5 -1 -6 3 -3 8 4 5 19 7 34 5 l27 -5 -22 16 c-13 9
-23 22 -22 28 0 9 2 9 5 0 6 -13 34 -6 34 9 0 5 -4 7 -8 4 -5 -3 -9 1 -9 9 0
8 5 11 11 7 17 -10 37 -11 31 -2 -3 5 -1 11 5 15 13 8 5 51 -10 47 -6 -1 -8 3
-5 9 5 8 10 8 18 0 18 -18 30 -12 25 14 -3 13 -1 22 3 19 13 -8 11 10 -3 26
-11 12 -10 12 5 1 11 -9 15 -21 12 -35 -5 -17 -4 -18 4 -6 6 8 8 23 5 34 -4
13 -2 16 6 11 9 -5 10 -1 5 16 -3 13 -3 20 2 14 12 -15 36 -18 27 -4 -5 9 -2
10 11 5 14 -5 16 -4 6 7 -9 11 -5 22 19 52 16 20 27 42 23 48 -3 6 -1 7 5 3 7
-4 12 -2 12 5 0 7 6 4 14 -7 14 -18 15 -18 13 4 -1 12 -5 22 -9 22 -4 0 -8 5
-8 10 0 6 8 5 19 -2 11 -7 18 -15 15 -19 -2 -4 0 -11 6 -14 6 -4 10 -3 9 2 -4
17 14 43 30 43 12 0 13 2 4 8 -10 6 -10 12 2 28 11 14 14 15 9 3 -3 -10 0 -20
6 -24 6 -3 10 -3 9 2 -4 21 2 34 13 27 7 -5 8 -3 3 6 -6 10 -4 12 9 7 14 -6
17 -3 12 9 -5 12 -2 15 10 10 13 -5 15 -2 11 14 -3 11 0 23 5 27 6 3 8 1 5 -4
-4 -6 4 -10 18 -10 14 0 22 3 19 8 -3 5 -1 9 5 9 5 0 12 -6 15 -12 3 -7 3 3 1
22 -5 35 -5 35 10 10 9 -15 14 -19 15 -10 0 13 1 13 10 0 7 -12 9 -10 7 8 -1
16 -6 21 -17 17 -12 -5 -13 -4 -2 7 11 11 17 9 33 -12 l19 -25 -10 30 c-11 28
-10 29 8 12 17 -15 21 -16 32 -3 6 9 17 14 22 13 6 -1 13 5 15 13 3 9 1 11 -4
5 -4 -5 -15 -11 -23 -13 -11 -2 -10 2 3 12 11 8 26 12 35 9 10 -4 13 -2 8 5
-3 6 -1 14 6 19 19 11 39 13 32 2 -3 -5 -9 -7 -14 -4 -5 3 -11 1 -14 -4 -3 -5
3 -11 14 -14 13 -3 18 -1 13 6 -4 6 0 8 10 4 12 -4 14 0 11 19 -2 13 0 24 6
24 6 0 8 -4 5 -10 -3 -5 -1 -10 5 -10 6 0 9 -4 5 -9 -3 -5 -1 -12 4 -15 5 -3
8 7 7 24 -2 23 1 27 11 18 7 -5 11 -14 8 -18 -3 -5 0 -12 6 -16 8 -4 9 -3 5 4
-4 7 -4 12 1 13 50 4 61 14 45 39 -12 20 0 36 18 25 6 -4 19 -1 28 7 15 12 16
11 3 -5 -9 -11 -21 -15 -33 -11 -17 5 -18 4 -6 -15 7 -12 14 -17 16 -11 2 5 8
10 13 10 6 0 7 -5 3 -11 -5 -8 -1 -8 14 0 12 6 24 16 27 21 7 12 25 4 25 -11
0 -6 -5 -7 -12 -3 -7 4 -8 3 -4 -5 12 -19 25 -2 21 28 -3 27 -1 29 26 26 18
-3 27 0 24 6 -8 12 18 7 27 -6 5 -6 8 -5 8 3 0 6 7 12 15 12 8 0 15 -5 15 -11
0 -5 -5 -7 -10 -4 -6 3 -13 -1 -16 -10 -5 -13 -9 -14 -15 -4 -4 8 -11 10 -15
6 -4 -4 -5 -10 -2 -13 9 -9 57 -12 55 -4 -1 5 3 8 8 8 6 0 9 -5 7 -11 -2 -6 5
-4 16 6 20 18 37 23 28 8 -10 -15 54 -4 73 13 24 22 38 20 20 -2 -8 -10 -4 -7
9 6 12 13 22 18 22 13 0 -6 5 -11 11 -11 5 0 7 5 3 11 -4 8 0 7 15 -1 27 -14
19 -30 -13 -24 -16 3 -26 -2 -30 -12 -5 -13 -3 -14 6 -7 7 6 21 9 30 8 10 -2
27 8 38 22 11 14 20 20 20 14 0 -7 5 -9 10 -6 6 3 10 2 10 -3 0 -6 7 -12 15
-16 19 -7 19 -3 -2 20 -10 10 -29 20 -43 22 -62 6 -70 7 -70 12 0 14 -301 20
-319 6 -11 -8 -13 -8 -7 2 4 6 5 12 2 12 -3 0 -7 -4 -10 -9z m194 -40 c0 10 3
10 12 1 13 -13 32 -17 25 -4 -3 4 7 7 23 7 19 1 26 -3 23 -12 -3 -7 -9 -14
-14 -14 -5 -1 -15 -2 -21 -3 -7 -1 -19 2 -25 7 -9 6 -18 5 -28 -3 -8 -7 -15
-11 -16 -9 -8 38 -7 40 7 28 11 -9 14 -9 14 2z m-196 -45 c-3 -9 -10 -16 -15
-16 -5 0 -4 9 3 20 14 22 21 20 12 -4z m-79 -34 c-13 -13 -43 -10 -49 4 -3 8
-2 12 3 9 5 -3 13 -1 16 5 5 8 11 7 21 -1 8 -6 12 -14 9 -17z m-215 -87 c0
-12 -19 -12 -23 0 -4 9 -1 12 9 8 7 -3 14 -7 14 -8z m-139 -48 c-10 -9 -11 -8
-5 6 3 10 9 15 12 12 3 -3 0 -11 -7 -18z m-91 -57 c0 -5 -5 -10 -11 -10 -5 0
-7 5 -4 10 3 6 8 10 11 10 2 0 4 -4 4 -10z m-56 -75 c-4 -8 -11 -12 -16 -9 -6
4 -5 10 3 15 19 12 19 11 13 -6z m-144 -120 c0 -8 -4 -15 -10 -15 -5 0 -7 7
-4 15 4 8 8 15 10 15 2 0 4 -7 4 -15z m-96 -177 c-3 -4 -9 -8 -15 -8 -5 0 -9
4 -9 8 0 5 7 9 15 9 8 0 12 -4 9 -9z m1216 -114 c0 -8 -19 -13 -24 -6 -3 5 1
9 9 9 8 0 15 -2 15 -3z m-630 -138 c0 -2 -7 -7 -16 -10 -8 -3 -12 -2 -9 4 6
10 25 14 25 6z m0 -40 c0 -3 -4 -8 -10 -11 -5 -3 -10 -1 -10 4 0 6 5 11 10 11
6 0 10 -2 10 -4z m-730 -61 c-8 -9 -8 -15 0 -20 13 -8 3 -25 -13 -24 -8 0 -8
2 1 6 9 4 10 8 2 18 -8 9 -8 15 0 20 6 3 7 11 4 17 -4 7 -2 8 5 4 9 -6 9 -11
1 -21z m2150 11 c0 -3 -4 -8 -10 -11 -5 -3 -10 -1 -10 4 0 6 5 11 10 11 6 0
10 -2 10 -4z m-3 -46 c-2 -11 -6 -22 -9 -26 -4 -3 -5 2 -3 13 2 10 4 21 4 26
1 4 3 7 6 7 3 0 4 -9 2 -20z m3 -79 c0 -6 -4 -12 -8 -15 -5 -3 -9 1 -9 9 0 8
4 15 9 15 4 0 8 -4 8 -9z m-2160 -15 c0 -3 -4 -8 -10 -11 -5 -3 -10 -1 -10 4
0 6 5 11 10 11 6 0 10 -2 10 -4z m2157 -66 c-2 -11 -6 -22 -9 -26 -4 -3 -5 2
-3 13 2 10 4 21 4 26 1 4 3 7 6 7 3 0 4 -9 2 -20z m-582 -39 c3 -5 2 -12 -3
-15 -5 -3 -9 1 -9 9 0 17 3 19 12 6z m585 -40 c0 -6 -4 -12 -8 -15 -5 -3 -9 1
-9 9 0 8 4 15 9 15 4 0 8 -4 8 -9z m-3 -81 c-2 -11 -6 -22 -9 -26 -4 -3 -5 2
-3 13 2 10 4 21 4 26 1 4 3 7 6 7 3 0 4 -9 2 -20z m-2137 -74 c0 -3 -4 -8 -10
-11 -5 -3 -10 -1 -10 4 0 6 5 11 10 11 6 0 10 -2 10 -4z m2140 -5 c0 -6 -4
-12 -8 -15 -5 -3 -9 1 -9 9 0 8 4 15 9 15 4 0 8 -4 8 -9z m-585 -40 c3 -5 2
-12 -3 -15 -5 -3 -9 1 -9 9 0 17 3 19 12 6z m582 -41 c-2 -11 -6 -22 -9 -26
-4 -3 -5 2 -3 13 2 10 4 21 4 26 1 4 3 7 6 7 3 0 4 -9 2 -20z m-1441 -24 c0
-14 -3 -23 -7 -20 -6 3 -6 22 0 42 3 10 7 -2 7 -22z m1444 -55 c0 -6 -4 -12
-8 -15 -5 -3 -9 1 -9 9 0 8 4 15 9 15 4 0 8 -4 8 -9z m-1444 -105 c0 -14 -3
-23 -7 -20 -6 3 -6 22 0 42 3 10 7 -2 7 -22z m859 -15 c3 -5 2 -12 -3 -15 -5
-3 -9 1 -9 9 0 17 3 19 12 6z m290 -129 c-3 -3 -11 0 -18 7 -9 10 -8 11 6 5
10 -3 15 -9 12 -12z m-290 -111 c3 -5 2 -12 -3 -15 -5 -3 -9 1 -9 9 0 17 3 19
12 6z m-859 -96 c-1 -8 -5 -17 -8 -21 -5 -4 -4 16 1 34 3 9 9 -1 7 -13z m214
-387 c0 -6 -6 -5 -15 2 -8 7 -15 14 -15 16 0 2 7 1 15 -2 8 -4 15 -11 15 -16z
m317 -4 c-3 -3 -12 -4 -19 -1 -8 3 -5 6 6 6 11 1 17 -2 13 -5z"/>
<path d="M1186 2482 c-3 -5 1 -9 9 -9 8 0 12 4 9 9 -3 4 -7 8 -9 8 -2 0 -6 -4
-9 -8z"/>
<path d="M1768 2539 c6 -9 8 -20 4 -25 -4 -4 2 -2 13 6 30 21 32 24 14 17 -9
-3 -23 0 -30 6 -11 10 -11 9 -1 -4z"/>
<path d="M1346 2521 c-3 -5 1 -11 9 -15 15 -6 29 7 18 18 -9 9 -21 8 -27 -3z"/>
<path d="M846 2302 c-3 -5 1 -9 9 -9 8 0 12 4 9 9 -3 4 -7 8 -9 8 -2 0 -6 -4
-9 -8z"/>
<path d="M1450 2277 c-30 -11 -58 -26 -62 -31 -4 -6 -8 -8 -8 -4 0 3 -28 -4
-61 -18 -34 -13 -65 -21 -69 -19 -5 3 -10 1 -12 -3 -3 -7 -175 -81 -203 -86
-5 -2 -27 -10 -49 -19 -21 -9 -42 -17 -47 -17 -5 0 -17 -4 -27 -10 -16 -9
-103 -43 -261 -102 -62 -23 -65 -25 -66 -60 -1 -20 -5 -48 -9 -62 -6 -24 -5
-26 12 -17 11 6 24 6 33 0 21 -13 33 -11 23 4 -5 7 -2 5 8 -5 9 -10 21 -18 28
-18 7 0 5 6 -4 16 -20 19 -20 21 -1 21 8 0 12 -4 10 -8 -3 -4 2 -9 10 -13 8
-3 15 -1 15 5 0 6 5 7 12 3 7 -4 8 -3 4 4 -4 7 -1 12 8 12 9 0 16 -5 16 -11 0
-5 5 -7 11 -3 8 5 6 10 -5 16 -17 10 -13 28 7 28 8 0 8 -3 -1 -9 -10 -6 -9
-10 7 -14 14 -3 19 -1 14 6 -4 7 0 8 11 4 13 -5 17 -3 13 7 -9 22 18 27 44 9
17 -13 20 -13 13 -2 -15 25 -14 46 2 25 13 -18 18 -15 15 9 -1 6 6 1 14 -9 11
-15 15 -16 15 -5 0 8 -5 20 -11 26 -8 8 -8 13 0 18 7 4 10 1 9 -7 -2 -7 3 -12
11 -10 7 1 20 -3 29 -10 13 -11 14 -11 7 1 -6 11 -4 13 8 8 10 -4 16 -2 14 6
-1 7 10 12 30 12 17 0 29 3 26 7 -2 5 1 8 8 8 8 0 7 5 -2 17 -13 15 -12 15 8
3 12 -8 19 -19 15 -25 -3 -5 2 -4 11 4 19 15 23 26 5 15 -7 -5 -8 -3 -3 5 4 8
21 11 40 9 24 -3 31 0 28 9 -3 7 -8 11 -12 9 -4 -3 -13 0 -21 5 -12 7 -11 8 5
6 11 -1 26 -6 33 -10 7 -5 12 -3 12 4 0 7 9 5 22 -7 14 -12 18 -13 10 -3 -12
16 -7 29 10 29 5 0 6 -6 2 -12 -6 -10 -4 -10 8 0 8 7 24 10 34 6 18 -5 18 -5
1 6 -9 6 -21 9 -25 6 -5 -3 -9 1 -9 9 0 10 6 11 23 5 16 -7 28 -4 45 11 25 22
37 25 21 6 -8 -9 -8 -17 0 -27 8 -12 9 -12 4 3 -5 15 4 22 26 18 4 0 5 6 2 14
-4 8 -2 15 4 15 6 0 19 3 29 6 16 5 16 4 -1 -10 -25 -20 -17 -20 20 -1 16 8
23 15 17 15 -7 0 -13 5 -13 11 0 7 9 6 23 -4 19 -12 24 -13 24 -2 0 8 -4 12
-8 10 -4 -3 -9 1 -12 8 -4 10 2 13 19 9 13 -2 21 -9 17 -15 -3 -6 -1 -7 5 -3
7 4 12 14 12 22 0 8 5 12 10 9 7 -4 6 -14 -1 -28 -10 -19 -8 -18 15 5 27 26
40 29 63 15 6 -4 15 -3 18 3 4 6 1 9 -6 8 -6 -2 -14 4 -16 12 -4 13 -3 13 6 0
6 -8 11 -10 11 -5 0 6 7 2 14 -8 10 -12 16 -15 21 -7 5 8 11 7 22 -2 9 -7 19
-13 22 -13 3 0 5 -3 4 -7 -2 -5 2 -8 8 -8 5 0 7 -5 3 -12 -4 -7 -3 -8 5 -4 6
4 9 11 6 16 -3 4 4 6 15 3 17 -5 18 -8 8 -21 -11 -13 -10 -14 10 -3 18 10 22
9 22 -4 0 -9 5 -13 10 -10 6 4 8 11 5 16 -10 15 2 10 16 -8 12 -14 12 -16 0
-8 -9 5 -12 4 -8 -2 4 -6 18 -8 32 -5 23 4 29 -3 27 -28 0 -4 10 -6 23 -6 13
0 21 4 19 8 -3 4 0 8 5 8 6 0 11 -5 11 -10 0 -6 3 -9 8 -9 19 3 32 -2 32 -12
0 -8 -4 -8 -14 0 -11 9 -16 9 -22 -1 -4 -7 -4 -10 1 -6 4 4 14 3 21 -3 8 -7
14 -7 19 1 3 5 11 10 17 10 6 0 5 -7 -3 -17 -10 -12 -11 -15 -1 -9 7 4 23 1
36 -7 16 -11 27 -12 41 -5 15 9 17 8 12 -4 -4 -12 0 -14 14 -11 10 3 16 10 12
17 -3 6 3 2 15 -8 24 -21 29 -31 10 -20 -10 5 -10 4 -1 -6 13 -14 56 -22 48
-10 -2 4 2 7 10 7 8 0 12 -4 9 -9 -5 -8 10 -12 30 -9 4 1 14 -3 22 -10 7 -6
18 -8 23 -5 5 4 13 1 17 -5 4 -7 3 -9 -3 -6 -5 3 -10 0 -10 -7 0 -11 5 -12 24
-3 13 5 23 14 23 19 0 5 -6 6 -12 2 -10 -6 -10 -5 -1 8 7 8 10 18 6 21 -3 4
-2 7 4 7 6 0 13 9 16 19 4 15 1 18 -12 13 -14 -5 -14 -4 -1 13 14 17 13 18 -3
12 -11 -4 -16 -3 -12 3 3 6 12 10 20 10 19 0 28 17 14 26 -8 4 -9 3 -5 -4 4
-7 1 -12 -8 -12 -19 0 -20 11 -3 29 10 11 9 13 -3 9 -10 -4 -16 0 -16 12 0 10
4 16 8 14 4 -3 8 0 8 5 0 6 -5 11 -11 11 -6 0 -9 7 -5 15 3 8 0 15 -6 15 -7 0
-7 4 1 14 8 10 8 16 -2 24 -10 8 -13 6 -14 -8 -2 -23 -42 -70 -60 -70 -7 0
-13 -4 -13 -9 0 -4 -17 -7 -37 -5 -53 6 -123 27 -123 37 0 5 -6 7 -13 4 -7 -3
-21 1 -31 9 -11 7 -23 11 -27 8 -5 -3 -9 0 -9 6 0 6 -4 9 -9 5 -5 -3 -12 -1
-16 5 -3 5 -17 10 -30 10 -13 0 -25 4 -27 10 -1 5 -12 11 -23 13 -11 2 -33 10
-50 17 -60 25 -238 90 -244 89 -3 -1 -31 -11 -61 -22z m63 -117 c3 6 4 5 3 -2
-4 -19 -23 -20 -30 -2 -5 14 -4 15 8 5 10 -8 16 -9 19 -1z m-188 -60 c-3 -5
-12 -10 -18 -10 -7 0 -6 4 3 10 19 12 23 12 15 0z m-55 -34 c0 -3 -4 -8 -10
-11 -5 -3 -10 -1 -10 4 0 6 5 11 10 11 6 0 10 -2 10 -4z m564 -12 c3 -8 2 -12
-4 -9 -6 3 -10 10 -10 16 0 14 7 11 14 -7z m-649 -14 c-3 -5 -14 -10 -23 -9
-14 0 -13 2 3 9 27 11 27 11 20 0z m805 -51 c0 -6 -4 -7 -10 -4 -5 3 -10 11
-10 16 0 6 5 7 10 4 6 -3 10 -11 10 -16z m-965 -19 c3 -6 -1 -7 -9 -4 -18 7
-21 14 -7 14 6 0 13 -4 16 -10z m-55 -14 c0 -2 -6 -9 -14 -15 -11 -9 -16 -9
-22 0 -4 7 -3 9 4 5 6 -3 13 -2 17 4 6 10 15 14 15 6z"/>
<path d="M646 2151 c-3 -5 1 -11 9 -14 9 -4 12 -1 8 9 -6 16 -10 17 -17 5z"/>
<path d="M1613 2126 c0 -15 22 -15 34 0 4 5 4 6 -1 2 -5 -4 -14 -3 -21 2 -8 7
-12 5 -12 -4z"/>
<path d="M623 2118 c-22 -28 -24 -38 -9 -32 9 3 14 10 11 14 -3 5 3 13 12 19
10 6 13 11 7 11 -6 0 -16 -6 -21 -12z"/>
<path d="M2273 1925 c0 -8 4 -12 9 -9 5 3 6 10 3 15 -9 13 -12 11 -12 -6z"/>
<path d="M2170 1911 c0 -5 5 -13 10 -16 6 -3 10 -2 10 4 0 5 -4 13 -10 16 -5
3 -10 2 -10 -4z"/>
<path d="M826 1877 c3 -10 9 -15 12 -12 3 3 0 11 -7 18 -10 9 -11 8 -5 -6z"/>
<path d="M2255 1880 c3 -5 8 -10 11 -10 2 0 4 5 4 10 0 6 -5 10 -11 10 -5 0
-7 -4 -4 -10z"/>
<path d="M595 1810 c-3 -6 1 -7 9 -4 18 7 21 14 7 14 -6 0 -13 -4 -16 -10z"/>
<path d="M1406 1781 c-4 -5 -2 -12 3 -15 5 -4 12 -2 15 3 4 5 2 12 -3 15 -5 4
-12 2 -15 -3z"/>
<path d="M383 1744 c4 -4 2 -13 -3 -19 -8 -9 -6 -14 5 -19 10 -4 14 -2 9 5 -4
6 -1 15 6 19 8 5 7 9 -6 14 -10 4 -15 4 -11 0z"/>
<path d="M1967 1659 c7 -7 15 -10 18 -7 3 3 -2 9 -12 12 -14 6 -15 5 -6 -5z"/>
<path d="M740 1460 c0 -5 5 -10 11 -10 5 0 7 5 4 10 -3 6 -8 10 -11 10 -2 0
-4 -4 -4 -10z"/>
<path d="M310 1386 c0 -2 7 -7 16 -10 8 -3 12 -2 9 4 -6 10 -25 14 -25 6z"/>
<path d="M2185 1280 c-3 -5 -1 -10 4 -10 6 0 11 5 11 10 0 6 -2 10 -4 10 -3 0
-8 -4 -11 -10z"/>
<path d="M1030 1276 c0 -2 8 -10 18 -17 15 -13 16 -12 3 4 -13 16 -21 21 -21
13z"/>
<path d="M325 1220 c-3 -5 -1 -10 4 -10 6 0 11 5 11 10 0 6 -2 10 -4 10 -3 0
-8 -4 -11 -10z"/>
<path d="M325 1190 c-3 -6 1 -7 9 -4 18 7 21 14 7 14 -6 0 -13 -4 -16 -10z"/>
<path d="M1614 1095 c0 -13 3 -22 7 -19 8 4 6 30 -2 38 -3 3 -5 -5 -5 -19z"/>
<path d="M340 1076 c0 -2 7 -7 16 -10 8 -3 12 -2 9 4 -6 10 -25 14 -25 6z"/>
<path d="M2185 1040 c-3 -5 -1 -10 4 -10 6 0 11 5 11 10 0 6 -2 10 -4 10 -3 0
-8 -4 -11 -10z"/>
<path d="M1616 1027 c3 -10 9 -15 12 -12 3 3 0 11 -7 18 -10 9 -11 8 -5 -6z"/>
<path d="M750 980 c-9 -6 -10 -10 -3 -10 6 0 15 5 18 10 8 12 4 12 -15 0z"/>
<path d="M1607 983 c-3 -5 1 -14 8 -20 11 -10 13 -9 12 7 -1 20 -12 26 -20 13z"/>
<path d="M746 918 c3 -4 9 -8 15 -8 5 0 9 4 9 8 0 5 -7 9 -15 9 -8 0 -12 -4
-9 -9z"/>
<path d="M1610 923 c0 -5 5 -15 10 -23 7 -12 9 -10 7 8 -1 19 -17 33 -17 15z"/>
<path d="M1610 863 c0 -5 5 -15 10 -23 7 -12 9 -10 7 8 -1 19 -17 33 -17 15z"/>
<path d="M2470 846 c0 -2 7 -7 16 -10 8 -3 12 -2 9 4 -6 10 -25 14 -25 6z"/>
<path d="M750 740 c-9 -6 -10 -10 -3 -10 6 0 15 5 18 10 8 12 4 12 -15 0z"/>
<path d="M1607 743 c-3 -5 1 -14 8 -20 11 -10 13 -9 12 7 -1 20 -12 26 -20 13z"/>
<path d="M1610 683 c0 -5 5 -15 10 -23 7 -12 9 -10 7 8 -1 19 -17 33 -17 15z"/>
<path d="M1610 623 c0 -5 5 -15 10 -23 7 -12 9 -10 7 8 -1 19 -17 33 -17 15z"/>
<path d="M1776 229 c21 -23 23 -23 20 -2 -2 9 -11 17 -20 19 -17 2 -17 2 0
-17z"/>
<path d="M1280 100 c-9 -6 -10 -10 -3 -10 6 0 15 5 18 10 8 12 4 12 -15 0z"/>
</g>
</svg>
